<?plantuml 1.2026.2?><svg xmlns="http://www.w3.org/2000/svg" xmlns:xlink="http://www.w3.org/1999/xlink" contentStyleType="text/css" data-diagram-type="DESCRIPTION" height="466px" preserveAspectRatio="none" style="width:3486px;height:466px;background:#FEFEFE;" version="1.1" viewBox="0 0 3486 466" width="3486px" zoomAndPan="magnify"><title>**DFD Level 0 &#8212; &#1050;&#1086;&#1085;&#1090;&#1077;&#1082;&#1089;&#1090;&#1085;&#1072;&#1103; &#1076;&#1080;&#1072;&#1075;&#1088;&#1072;&#1084;&#1084;&#1072;**</title><defs/><g><rect fill="#FEFEFE" height="466" style="stroke:none;stroke-width:1;" width="3486" x="0" y="0"/><g class="title" data-source-line="20"><text fill="#000000" font-family="sans-serif" font-size="18" font-weight="bold" lengthAdjust="spacing" textLength="404.7451" x="1533.6669" y="26.708">DFD Level 0 &#8212; &#1050;&#1086;&#1085;&#1090;&#1077;&#1082;&#1089;&#1090;&#1085;&#1072;&#1103; &#1076;&#1080;&#1072;&#1075;&#1088;&#1072;&#1084;&#1084;&#1072;</text></g><!--entity Guest0--><g class="entity" data-qualified-name="Guest0" data-source-line="24" id="ent0002"><ellipse cx="2063.3269" cy="55.9531" fill="#F1F1F1" rx="8" ry="8" style="stroke:#181818;stroke-width:0.5;"/><path d="M2063.3269,63.9531 L2063.3269,90.9531 M2050.3269,71.9531 L2076.3269,71.9531 M2063.3269,90.9531 L2050.3269,105.9531 M2063.3269,90.9531 L2076.3269,105.9531" fill="none" style="stroke:#181818;stroke-width:0.5;"/><text fill="#000000" font-family="sans-serif" font-size="16" lengthAdjust="spacing" textLength="47.0938" x="2039.78" y="122.3047">&#1043;&#1086;&#1089;&#1090;&#1100;</text></g><!--entity Client0--><g class="entity" data-qualified-name="Client0" data-source-line="25" id="ent0003"><ellipse cx="629.0847" cy="353.9531" fill="#F1F1F1" rx="8" ry="8" style="stroke:#181818;stroke-width:0.5;"/><path d="M629.0847,361.9531 L629.0847,388.9531 M616.0847,369.9531 L642.0847,369.9531 M629.0847,388.9531 L616.0847,403.9531 M629.0847,388.9531 L642.0847,403.9531" fill="none" style="stroke:#181818;stroke-width:0.5;"/><text fill="#000000" font-family="sans-serif" font-size="16" lengthAdjust="spacing" textLength="61.6094" x="598.28" y="420.3047">&#1050;&#1083;&#1080;&#1077;&#1085;&#1090;</text></g><!--entity Admin0--><g class="entity" data-qualified-name="Admin0" data-source-line="26" id="ent0004"><ellipse cx="1689.1198" cy="353.9531" fill="#F1F1F1" rx="8" ry="8" style="stroke:#181818;stroke-width:0.5;"/><path d="M1689.1198,361.9531 L1689.1198,388.9531 M1676.1198,369.9531 L1702.1198,369.9531 M1689.1198,388.9531 L1676.1198,403.9531 M1689.1198,388.9531 L1702.1198,403.9531" fill="none" style="stroke:#181818;stroke-width:0.5;"/><text fill="#000000" font-family="sans-serif" font-size="16" lengthAdjust="spacing" textLength="132.6797" x="1622.78" y="420.3047">&#1040;&#1076;&#1084;&#1080;&#1085;&#1080;&#1089;&#1090;&#1088;&#1072;&#1090;&#1086;&#1088;</text></g><!--entity System0--><g class="entity" data-qualified-name="System0" data-source-line="29" id="ent0005"><rect fill="#F1F1F1" height="68.8906" rx="2.5" ry="2.5" style="stroke:#181818;stroke-width:0.5;" width="155.4131" x="1985.78" y="201.4531"/><text fill="#000000" font-family="sans-serif" font-size="14" lengthAdjust="spacing" textLength="8.9072" x="1995.78" y="224.4482">0</text><text fill="#000000" font-family="sans-serif" font-size="14" lengthAdjust="spacing" textLength="135.4131" x="1995.78" y="240.7451">&#1057;&#1080;&#1089;&#1090;&#1077;&#1084;&#1072; &#1076;&#1086;&#1089;&#1090;&#1072;&#1074;&#1082;&#1080;</text><text fill="#000000" font-family="sans-serif" font-size="14" lengthAdjust="spacing" textLength="94.4111" x="1995.78" y="257.042">La Bella Italia</text></g><!--entity D1_0--><g class="entity" data-qualified-name="D1_0" data-source-line="32" id="ent0006"><path d="M2233.28,363.9531 C2233.28,353.9531 2295.2536,353.9531 2295.2536,353.9531 C2295.2536,353.9531 2357.2273,353.9531 2357.2273,363.9531 L2357.2273,405.5469 C2357.2273,415.5469 2295.2536,415.5469 2295.2536,415.5469 C2295.2536,415.5469 2233.28,415.5469 2233.28,405.5469 L2233.28,363.9531" fill="#F1F1F1" style="stroke:#181818;stroke-width:0.5;"/><path d="M2233.28,363.9531 C2233.28,373.9531 2295.2536,373.9531 2295.2536,373.9531 C2295.2536,373.9531 2357.2273,373.9531 2357.2273,363.9531" fill="none" style="stroke:#181818;stroke-width:0.5;"/><text fill="#000000" font-family="sans-serif" font-size="14" lengthAdjust="spacing" textLength="19.6875" x="2243.28" y="390.9482">D1</text><text fill="#000000" font-family="sans-serif" font-size="14" lengthAdjust="spacing" textLength="103.9473" x="2243.28" y="407.2451">&#1055;&#1086;&#1083;&#1100;&#1079;&#1086;&#1074;&#1072;&#1090;&#1077;&#1083;&#1080;</text></g><!--entity D2_0--><g class="entity" data-qualified-name="D2_0" data-source-line="33" id="ent0007"><path d="M2683.28,363.9531 C2683.28,353.9531 2714.0954,353.9531 2714.0954,353.9531 C2714.0954,353.9531 2744.9109,353.9531 2744.9109,363.9531 L2744.9109,405.5469 C2744.9109,415.5469 2714.0954,415.5469 2714.0954,415.5469 C2714.0954,415.5469 2683.28,415.5469 2683.28,405.5469 L2683.28,363.9531" fill="#F1F1F1" style="stroke:#181818;stroke-width:0.5;"/><path d="M2683.28,363.9531 C2683.28,373.9531 2714.0954,373.9531 2714.0954,373.9531 C2714.0954,373.9531 2744.9109,373.9531 2744.9109,363.9531" fill="none" style="stroke:#181818;stroke-width:0.5;"/><text fill="#000000" font-family="sans-serif" font-size="14" lengthAdjust="spacing" textLength="19.6875" x="2693.28" y="390.9482">D2</text><text fill="#000000" font-family="sans-serif" font-size="14" lengthAdjust="spacing" textLength="41.6309" x="2693.28" y="407.2451">&#1052;&#1077;&#1085;&#1102;</text></g><!--entity D3_0--><g class="entity" data-qualified-name="D3_0" data-source-line="34" id="ent0008"><path d="M2985.78,363.9531 C2985.78,353.9531 3022.3239,353.9531 3022.3239,353.9531 C3022.3239,353.9531 3058.8679,353.9531 3058.8679,363.9531 L3058.8679,405.5469 C3058.8679,415.5469 3022.3239,415.5469 3022.3239,415.5469 C3022.3239,415.5469 2985.78,415.5469 2985.78,405.5469 L2985.78,363.9531" fill="#F1F1F1" style="stroke:#181818;stroke-width:0.5;"/><path d="M2985.78,363.9531 C2985.78,373.9531 3022.3239,373.9531 3022.3239,373.9531 C3022.3239,373.9531 3058.8679,373.9531 3058.8679,363.9531" fill="none" style="stroke:#181818;stroke-width:0.5;"/><text fill="#000000" font-family="sans-serif" font-size="14" lengthAdjust="spacing" textLength="19.6875" x="2995.78" y="390.9482">D3</text><text fill="#000000" font-family="sans-serif" font-size="14" lengthAdjust="spacing" textLength="53.0879" x="2995.78" y="407.2451">&#1047;&#1072;&#1082;&#1072;&#1079;&#1099;</text></g><!--entity D4_0--><g class="entity" data-qualified-name="D4_0" data-source-line="35" id="ent0009"><path d="M3297.28,355.9531 C3297.28,345.9531 3356.4406,345.9531 3356.4406,345.9531 C3356.4406,345.9531 3415.6013,345.9531 3415.6013,355.9531 L3415.6013,413.8438 C3415.6013,423.8438 3356.4406,423.8438 3356.4406,423.8438 C3356.4406,423.8438 3297.28,423.8438 3297.28,413.8438 L3297.28,355.9531" fill="#F1F1F1" style="stroke:#181818;stroke-width:0.5;"/><path d="M3297.28,355.9531 C3297.28,365.9531 3356.4406,365.9531 3356.4406,365.9531 C3356.4406,365.9531 3415.6013,365.9531 3415.6013,355.9531" fill="none" style="stroke:#181818;stroke-width:0.5;"/><text fill="#000000" font-family="sans-serif" font-size="14" lengthAdjust="spacing" textLength="19.6875" x="3307.28" y="382.9482">D4</text><text fill="#000000" font-family="sans-serif" font-size="14" lengthAdjust="spacing" textLength="61.667" x="3307.28" y="399.2451">&#1050;&#1086;&#1088;&#1079;&#1080;&#1085;&#1072;</text><text fill="#000000" font-family="sans-serif" font-size="14" lengthAdjust="spacing" textLength="98.3213" x="3307.28" y="415.542">(localStorage)</text></g><!--link Guest0 to System0--><g class="link" data-entity-1="ent0002" data-entity-2="ent0005" data-link-type="dependency" data-source-line="40" id="lnk10"><path d="M2039.71,88.1031 C1933.06,89.1631 1503.66,98.0131 1568.28,171.4531 C1595.38,202.2531 1847.2718,221.8573 1979.6718,230.1673" fill="none" id="Guest0-to-System0" style="stroke:#181818;stroke-width:1;"/><polygon fill="#181818" points="1985.66,230.5431,1976.9282,225.9872,1980.6698,230.2299,1976.4271,233.9715,1985.66,230.5431" style="stroke:#181818;stroke-width:1;"/><text fill="#000000" font-family="sans-serif" font-size="12" lengthAdjust="spacing" textLength="327.5215" x="1569.28" y="168.5918">&#1044;&#1072;&#1085;&#1085;&#1099;&#1077; &#1088;&#1077;&#1075;&#1080;&#1089;&#1090;&#1088;&#1072;&#1094;&#1080;&#1080; (&#1080;&#1084;&#1103;, email, &#1087;&#1072;&#1088;&#1086;&#1083;&#1100;, &#1090;&#1077;&#1083;&#1077;&#1092;&#1086;&#1085;)</text></g><!--link Guest0 to System0--><g class="link" data-entity-1="ent0002" data-entity-2="ent0005" data-link-type="dependency" data-source-line="41" id="lnk11"><path d="M2039.66,92.7231 C1996.27,102.6331 1910.65,128.2131 1937.28,171.4531 C1948.46,189.6031 1961.2139,200.079 1980.2839,209.529" fill="none" id="Guest0-to-System0-1" style="stroke:#181818;stroke-width:1;"/><polygon fill="#181818" points="1985.66,212.1931,1979.3719,204.6129,1981.1799,209.973,1975.8198,211.7811,1985.66,212.1931" style="stroke:#181818;stroke-width:1;"/><text fill="#000000" font-family="sans-serif" font-size="12" lengthAdjust="spacing" textLength="204.293" x="1938.28" y="168.5918">&#1059;&#1095;&#1105;&#1090;&#1085;&#1099;&#1077; &#1076;&#1072;&#1085;&#1085;&#1099;&#1077; (email, &#1087;&#1072;&#1088;&#1086;&#1083;&#1100;)</text></g><!--link System0 to Guest0--><g class="link" data-entity-1="ent0005" data-entity-2="ent0002" data-link-type="dependency" data-source-line="42" id="lnk12"><path d="M2122.85,201.2431 C2132.72,192.8531 2141.58,182.9131 2147.28,171.4531 C2163.5,138.8731 2122.5839,113.924 2092.4239,100.094" fill="none" id="System0-to-Guest0" style="stroke:#181818;stroke-width:1;"/><polygon fill="#181818" points="2086.97,97.5931,2093.4836,104.9805,2091.5149,99.6772,2096.8182,97.7086,2086.97,97.5931" style="stroke:#181818;stroke-width:1;"/><text fill="#000000" font-family="sans-serif" font-size="12" lengthAdjust="spacing" textLength="165.3457" x="2152.28" y="168.5918">&#1052;&#1077;&#1085;&#1102;, &#1088;&#1077;&#1079;&#1091;&#1083;&#1100;&#1090;&#1072;&#1090;&#1099; &#1087;&#1086;&#1080;&#1089;&#1082;&#1072;</text></g><!--link System0 to Guest0--><g class="link" data-entity-1="ent0005" data-entity-2="ent0002" data-link-type="dependency" data-source-line="43" id="lnk13"><path d="M2140.95,226.7631 C2210.02,217.6931 2303.51,200.3831 2326.28,171.4531 C2389.85,90.7131 2168.2497,86.5887 2092.7897,87.3987" fill="none" id="System0-to-Guest0-1" style="stroke:#181818;stroke-width:1;"/><polygon fill="#181818" points="2086.79,87.4631,2095.8324,91.3663,2091.7897,87.4095,2095.7465,83.3668,2086.79,87.4631" style="stroke:#181818;stroke-width:1;"/><text fill="#000000" font-family="sans-serif" font-size="12" lengthAdjust="spacing" textLength="190.6289" x="2335.28" y="168.5918">&#1056;&#1077;&#1079;&#1091;&#1083;&#1100;&#1090;&#1072;&#1090; &#1088;&#1077;&#1075;&#1080;&#1089;&#1090;&#1088;&#1072;&#1094;&#1080;&#1080;/&#1074;&#1093;&#1086;&#1076;&#1072;</text></g><!--link Client0 to System0--><g class="link" data-entity-1="ent0003" data-entity-2="ent0005" data-link-type="dependency" data-source-line="46" id="lnk14"><path d="M598.24,383.9831 C513.54,383.1331 289.37,374.0531 360.28,300.4531 C417.32,241.2431 1653.58,236.985 1979.54,236.885" fill="none" id="Client0-to-System0" style="stroke:#181818;stroke-width:1;"/><polygon fill="#181818" points="1985.54,236.8831,1976.54,232.8831,1980.54,236.8831,1976.54,240.8831,1985.54,236.8831" style="stroke:#181818;stroke-width:1;"/><text fill="#000000" font-family="sans-serif" font-size="12" lengthAdjust="spacing" textLength="224.1973" x="361.28" y="312.5918">&#1044;&#1072;&#1085;&#1085;&#1099;&#1077; &#1082;&#1086;&#1088;&#1079;&#1080;&#1085;&#1099; (id &#1073;&#1083;&#1102;&#1076;&#1072;, &#1082;&#1086;&#1083;-&#1074;&#1086;)</text></g><!--link Client0 to System0--><g class="link" data-entity-1="ent0003" data-entity-2="ent0005" data-link-type="dependency" data-source-line="47" id="lnk15"><path d="M616.77,345.1331 C614.24,329.3331 615.15,312.0831 626.28,300.4531 C673.58,251.0131 1687.3202,239.7291 1979.6202,237.4891" fill="none" id="Client0-to-System0-1" style="stroke:#181818;stroke-width:1;"/><polygon fill="#181818" points="1985.62,237.4431,1976.5896,233.5122,1980.6201,237.4814,1976.6509,241.512,1985.62,237.4431" style="stroke:#181818;stroke-width:1;"/><text fill="#000000" font-family="sans-serif" font-size="12" lengthAdjust="spacing" textLength="256.418" x="627.28" y="312.5918">&#1044;&#1072;&#1085;&#1085;&#1099;&#1077; &#1076;&#1086;&#1089;&#1090;&#1072;&#1074;&#1082;&#1080; (&#1080;&#1084;&#1103;, &#1072;&#1076;&#1088;&#1077;&#1089;, &#1090;&#1077;&#1083;&#1077;&#1092;&#1086;&#1085;)</text></g><!--link Client0 to System0--><g class="link" data-entity-1="ent0003" data-entity-2="ent0005" data-link-type="dependency" data-source-line="48" id="lnk16"><path d="M660.38,377.1731 C709.42,366.1631 807.45,342.8431 888.28,315.4531 C904.7,309.8931 907.39,304.3231 924.28,300.4531 C1126.86,254.0331 1756.8206,241.1286 1979.4106,237.9586" fill="none" id="Client0-to-System0-2" style="stroke:#181818;stroke-width:1;"/><polygon fill="#181818" points="1985.41,237.8731,1976.354,234.0017,1980.4105,237.9443,1976.4679,242.0009,1985.41,237.8731" style="stroke:#181818;stroke-width:1;"/><text fill="#000000" font-family="sans-serif" font-size="12" lengthAdjust="spacing" textLength="181.0137" x="925.28" y="312.5918">&#1047;&#1072;&#1087;&#1088;&#1086;&#1089; &#1085;&#1072; &#1089;&#1087;&#1080;&#1089;&#1072;&#1085;&#1080;&#1077; &#1073;&#1086;&#1085;&#1091;&#1089;&#1086;&#1074;</text></g><!--link System0 to Client0--><g class="link" data-entity-1="ent0005" data-entity-2="ent0003" data-link-type="dependency" data-source-line="49" id="lnk17"><path d="M1985.69,240.0531 C1833.85,246.6831 1486.97,264.6631 1197.28,300.4531 C1158.77,305.2131 1149.6,309.3931 1111.28,315.4531 C941.39,342.3331 742.9684,368.978 666.2984,379.098" fill="none" id="System0-to-Client0" style="stroke:#181818;stroke-width:1;"/><polygon fill="#181818" points="660.35,379.8831,669.796,382.671,665.307,379.2288,668.7492,374.7398,660.35,379.8831" style="stroke:#181818;stroke-width:1;"/><text fill="#000000" font-family="sans-serif" font-size="12" lengthAdjust="spacing" textLength="210.8555" x="1198.28" y="312.5918">&#1052;&#1077;&#1085;&#1102;, &#1080;&#1089;&#1090;&#1086;&#1088;&#1080;&#1103; &#1079;&#1072;&#1082;&#1072;&#1079;&#1086;&#1074;, &#1087;&#1088;&#1086;&#1092;&#1080;&#1083;&#1100;</text></g><!--link System0 to Client0--><g class="link" data-entity-1="ent0005" data-entity-2="ent0003" data-link-type="dependency" data-source-line="50" id="lnk18"><path d="M1985.48,237.9731 C1622.77,242.9331 114.01,265.6331 80.28,300.4531 C6,377.1531 465.26,383.6161 592.01,383.9761" fill="none" id="System0-to-Client0-1" style="stroke:#181818;stroke-width:1;"/><polygon fill="#181818" points="598.01,383.9931,589.0214,379.9676,593.01,383.9789,588.9987,387.9675,598.01,383.9931" style="stroke:#181818;stroke-width:1;"/><text fill="#000000" font-family="sans-serif" font-size="12" lengthAdjust="spacing" textLength="262.6582" x="81.28" y="312.5918">&#1056;&#1077;&#1079;&#1091;&#1083;&#1100;&#1090;&#1072;&#1090; &#1079;&#1072;&#1082;&#1072;&#1079;&#1072; (&#1085;&#1086;&#1084;&#1077;&#1088;, &#1089;&#1091;&#1084;&#1084;&#1072;, &#1073;&#1086;&#1085;&#1091;&#1089;&#1099;)</text></g><!--link Admin0 to System0--><g class="link" data-entity-1="ent0004" data-entity-2="ent0005" data-link-type="dependency" data-source-line="53" id="lnk19"><path d="M1677.41,345.3431 C1675.08,329.7631 1675.98,312.6331 1686.28,300.4531 C1723.84,256.0431 1880.6549,242.9266 1979.6249,238.9066" fill="none" id="Admin0-to-System0" style="stroke:#181818;stroke-width:1;"/><polygon fill="#181818" points="1985.62,238.6631,1976.4651,235.0317,1980.6241,238.866,1976.7898,243.0251,1985.62,238.6631" style="stroke:#181818;stroke-width:1;"/><text fill="#000000" font-family="sans-serif" font-size="12" lengthAdjust="spacing" textLength="242.3086" x="1687.28" y="312.5918">&#1059;&#1087;&#1088;&#1072;&#1074;&#1083;&#1077;&#1085;&#1080;&#1077; &#1084;&#1077;&#1085;&#1102; (&#1076;&#1086;&#1073;&#1072;&#1074;&#1080;&#1090;&#1100;/&#1091;&#1076;&#1072;&#1083;&#1080;&#1090;&#1100;)</text></g><!--link Admin0 to System0--><g class="link" data-entity-1="ent0004" data-entity-2="ent0005" data-link-type="dependency" data-source-line="54" id="lnk20"><path d="M1755.96,370.5231 C1806.2,359.1631 1876.15,340.6931 1934.28,315.4531 C1962.3,303.2931 1986.4992,289.2129 2010.0392,273.9129" fill="none" id="Admin0-to-System0-1" style="stroke:#181818;stroke-width:1;"/><polygon fill="#181818" points="2015.07,270.6431,2005.344,272.194,2010.8777,273.3679,2009.7037,278.9016,2015.07,270.6431" style="stroke:#181818;stroke-width:1;"/><text fill="#000000" font-family="sans-serif" font-size="12" lengthAdjust="spacing" textLength="138.6973" x="1965.28" y="312.5918">&#1057;&#1084;&#1077;&#1085;&#1072; &#1089;&#1090;&#1072;&#1090;&#1091;&#1089;&#1072; &#1079;&#1072;&#1082;&#1072;&#1079;&#1072;</text></g><!--link System0 to Admin0--><g class="link" data-entity-1="ent0005" data-entity-2="ent0004" data-link-type="dependency" data-source-line="55" id="lnk21"><path d="M1985.75,238.9431 C1823.78,243.9131 1461.35,259.5231 1424.28,300.4531 C1365.03,365.8831 1519.9028,380.2587 1616.4728,383.2287" fill="none" id="System0-to-Admin0" style="stroke:#181818;stroke-width:1;"/><polygon fill="#181818" points="1622.47,383.4131,1613.5972,379.1384,1617.4724,383.2594,1613.3513,387.1346,1622.47,383.4131" style="stroke:#181818;stroke-width:1;"/><text fill="#000000" font-family="sans-serif" font-size="12" lengthAdjust="spacing" textLength="245.1152" x="1425.28" y="312.5918">&#1042;&#1089;&#1077; &#1079;&#1072;&#1082;&#1072;&#1079;&#1099;, &#1087;&#1086;&#1083;&#1100;&#1079;&#1086;&#1074;&#1072;&#1090;&#1077;&#1083;&#1080;, &#1089;&#1090;&#1072;&#1090;&#1080;&#1089;&#1090;&#1080;&#1082;&#1072;</text></g><!--link System0 to D1_0--><g class="link" data-entity-1="ent0005" data-entity-2="ent0006" data-link-type="dependency" data-source-line="58" id="lnk22"><path d="M2096.07,270.7431 C2111.62,285.6231 2130.98,302.5931 2150.28,315.4531 C2176,332.5831 2201.1889,345.325 2227.6889,356.995" fill="none" id="System0-to-D1_0" style="stroke:#181818;stroke-width:1;"/><polygon fill="#181818" points="2233.18,359.4131,2226.5554,352.1251,2228.6041,357.398,2223.3312,359.4466,2233.18,359.4131" style="stroke:#181818;stroke-width:1;"/><text fill="#000000" font-family="sans-serif" font-size="12" lengthAdjust="spacing" textLength="243.5684" x="2151.28" y="312.5918">&#1063;&#1090;&#1077;&#1085;&#1080;&#1077;/&#1079;&#1072;&#1087;&#1080;&#1089;&#1100; &#1076;&#1072;&#1085;&#1085;&#1099;&#1093; &#1087;&#1086;&#1083;&#1100;&#1079;&#1086;&#1074;&#1072;&#1090;&#1077;&#1083;&#1077;&#1081;</text></g><!--link D1_0 to System0--><g class="link" data-entity-1="ent0006" data-entity-2="ent0005" data-link-type="dependency" data-source-line="59" id="lnk23"><path d="M2357.48,361.2431 C2389.88,345.9431 2419.01,324.2531 2399.28,300.4531 C2367.13,261.6531 2235.8669,246.7894 2147.0369,240.9094" fill="none" id="D1_0-to-System0" style="stroke:#181818;stroke-width:1;"/><polygon fill="#181818" points="2141.05,240.5131,2149.7662,245.0988,2146.0391,240.8434,2150.2945,237.1163,2141.05,240.5131" style="stroke:#181818;stroke-width:1;"/><text fill="#000000" font-family="sans-serif" font-size="12" lengthAdjust="spacing" textLength="148.3945" x="2407.28" y="312.5918">&#1044;&#1072;&#1085;&#1085;&#1099;&#1077; &#1087;&#1086;&#1083;&#1100;&#1079;&#1086;&#1074;&#1072;&#1090;&#1077;&#1083;&#1077;&#1081;</text></g><!--link System0 to D2_0--><g class="link" data-entity-1="ent0005" data-entity-2="ent0007" data-link-type="dependency" data-source-line="60" id="lnk24"><path d="M2140.81,237.7131 C2241,240.7231 2419.74,253.0331 2564.28,300.4531 C2608.18,314.8531 2648.9193,339.0926 2678.1693,358.6126" fill="none" id="System0-to-D2_0" style="stroke:#181818;stroke-width:1;"/><polygon fill="#181818" points="2683.16,361.9431,2677.8943,353.6201,2679.0011,359.1677,2673.4535,360.2744,2683.16,361.9431" style="stroke:#181818;stroke-width:1;"/><text fill="#000000" font-family="sans-serif" font-size="12" lengthAdjust="spacing" textLength="130.916" x="2600.28" y="312.5918">&#1063;&#1090;&#1077;&#1085;&#1080;&#1077;/&#1079;&#1072;&#1087;&#1080;&#1089;&#1100; &#1084;&#1077;&#1085;&#1102;</text></g><!--link D2_0 to System0--><g class="link" data-entity-1="ent0007" data-entity-2="ent0005" data-link-type="dependency" data-source-line="61" id="lnk25"><path d="M2736.11,353.7531 C2745.87,336.3031 2752.53,315.0031 2739.28,300.4531 C2699.63,256.9031 2315.8082,242.7904 2146.7882,238.6404" fill="none" id="D2_0-to-System0" style="stroke:#181818;stroke-width:1;"/><polygon fill="#181818" points="2140.79,238.4931,2149.6891,242.7128,2145.7885,238.6159,2149.8855,234.7152,2140.79,238.4931" style="stroke:#181818;stroke-width:1;"/><text fill="#000000" font-family="sans-serif" font-size="12" lengthAdjust="spacing" textLength="87.4746" x="2746.28" y="312.5918">&#1044;&#1072;&#1085;&#1085;&#1099;&#1077; &#1084;&#1077;&#1085;&#1102;</text></g><!--link System0 to D3_0--><g class="link" data-entity-1="ent0005" data-entity-2="ent0008" data-link-type="dependency" data-source-line="62" id="lnk26"><path d="M2140.92,239.8131 C2310.92,246.6331 2711.32,265.9131 2842.28,300.4531 C2894.41,314.2031 2944.8335,339.4142 2980.2335,359.2142" fill="none" id="System0-to-D3_0" style="stroke:#181818;stroke-width:1;"/><polygon fill="#181818" points="2985.47,362.1431,2979.5678,354.2587,2981.1062,359.7024,2975.6626,361.2408,2985.47,362.1431" style="stroke:#181818;stroke-width:1;"/><text fill="#000000" font-family="sans-serif" font-size="12" lengthAdjust="spacing" textLength="145.6641" x="2884.28" y="312.5918">&#1063;&#1090;&#1077;&#1085;&#1080;&#1077;/&#1079;&#1072;&#1087;&#1080;&#1089;&#1100; &#1079;&#1072;&#1082;&#1072;&#1079;&#1086;&#1074;</text></g><!--link D3_0 to System0--><g class="link" data-entity-1="ent0008" data-entity-2="ent0005" data-link-type="dependency" data-source-line="63" id="lnk27"><path d="M3039.46,353.7631 C3047,336.0931 3051.5,314.5631 3038.28,300.4531 C3007.73,267.8431 2372.6973,246.0725 2147.0373,239.3225" fill="none" id="D3_0-to-System0" style="stroke:#181818;stroke-width:1;"/><polygon fill="#181818" points="2141.04,239.1431,2149.9164,243.4104,2146.0378,239.2926,2150.1556,235.414,2141.04,239.1431" style="stroke:#181818;stroke-width:1;"/><text fill="#000000" font-family="sans-serif" font-size="12" lengthAdjust="spacing" textLength="102.2227" x="3046.28" y="312.5918">&#1044;&#1072;&#1085;&#1085;&#1099;&#1077; &#1079;&#1072;&#1082;&#1072;&#1079;&#1086;&#1074;</text></g><!--link System0 to D4_0--><g class="link" data-entity-1="ent0005" data-entity-2="ent0009" data-link-type="dependency" data-source-line="64" id="lnk28"><path d="M2141.17,238.0531 C2357.72,241.6731 2963.71,255.6131 3157.28,300.4531 C3206.19,311.7831 3253.0193,331.5193 3291.6993,350.2393" fill="none" id="System0-to-D4_0" style="stroke:#181818;stroke-width:1;"/><polygon fill="#181818" points="3297.1,352.8531,3290.7414,345.3319,3292.5994,350.675,3287.2563,352.5329,3297.1,352.8531" style="stroke:#181818;stroke-width:1;"/><text fill="#000000" font-family="sans-serif" font-size="12" lengthAdjust="spacing" textLength="150.2402" x="3203.28" y="312.5918">&#1063;&#1090;&#1077;&#1085;&#1080;&#1077;/&#1079;&#1072;&#1087;&#1080;&#1089;&#1100; &#1082;&#1086;&#1088;&#1079;&#1080;&#1085;&#1099;</text></g><!--link D4_0 to System0--><g class="link" data-entity-1="ent0009" data-entity-2="ent0005" data-link-type="dependency" data-source-line="65" id="lnk29"><path d="M3370.5,345.6031 C3373.76,329.6931 3373.51,312.2431 3362.28,300.4531 C3320.02,256.0731 2421.0095,241.3689 2147.1295,237.9089" fill="none" id="D4_0-to-System0" style="stroke:#181818;stroke-width:1;"/><polygon fill="#181818" points="2141.13,237.8331,2150.0788,241.9465,2146.1296,237.8963,2150.1798,233.9471,2141.13,237.8331" style="stroke:#181818;stroke-width:1;"/><text fill="#000000" font-family="sans-serif" font-size="12" lengthAdjust="spacing" textLength="106.7988" x="3371.28" y="312.5918">&#1044;&#1072;&#1085;&#1085;&#1099;&#1077; &#1082;&#1086;&#1088;&#1079;&#1080;&#1085;&#1099;</text></g><g class="caption" data-source-line="21"><text fill="#000000" font-family="sans-serif" font-size="14" lengthAdjust="spacing" textLength="251.4053" x="1610.3368" y="453.8389">&#1057;&#1080;&#1089;&#1090;&#1077;&#1084;&#1072; &#1076;&#1086;&#1089;&#1090;&#1072;&#1074;&#1082;&#1080; &#171;La Bella Italia&#187;</text></g><?plantuml-src hLPTJzjM6BxthpXY5qsGQSA7fgdI9cqDJ9EuGzeLKdMQUCogOqU9MTPT9QDbcu9QnfWwiNv0ftKNksX6iJ04Kgc_u9o_m2_PyvvZ9tQ8eL8QAtRiz-jvd_SZli4-dU1Zt62bfHBBbRZFsPBZDLd9vcjrNispYzOkM-Ri2yjnEFlAvuxDeIrsHIYwueriuNo6eyl4Mz6NFug-ECNta8aZICx5kUp8XsHme9w_5Q5ioGrn0is0GUrRtwyrRXKApMRpPitXhkzRt_itoruLDXDbP3JksMwD8mTsbvVlhTMzTRTostEyEljeQP6EX4R5-eQlE_wIv_ehzWyMcrr826imvslMYd_ViLZTAllSNNEiX08l-rvzQFjnGZHG7--w0hxlyaQ6bDVhNdCecak8VDjF-lp4c9GktG3BYrylBhEYAhhO4y_5C_5I_8vV1xW-4zlYDLN-3_puJUpZ_1J7ziILKicmwMc5mFhESeO8-cWWT8eubMrSpqLNFgRE6kczwMcZp6k-xRdKPw7I3NHJ7g4fwROh3j608NltxqWpl-j5t36nWm21_1dd4Cq9imtv2swqWv1q35LgDeNqrLEvDSLuWtsvRZNyua2u9thaWQ0hyMt7jjo4V1kepg1nhg5I7ZGuigMqFwzKRRSu09NE9uShfO-n4YSOETZsvIPGjsKxhn0EEevD5LVTQ-XOTKVOK0XMxZTygpg4yBTYcbX1Ng2acnfk5JLkP3PLcaNK5oXSJsw9Ore5Ahk0R9NtqkoTOb9_3lfF5LkFj7mkBP-7_0d2dU9xB3jQPpwjim2TFM8G4OdNxggRSxmoTrR0E6OthwqMxWoJUZ7OLc4wdRW3LMjYSGrApIusTqRgOUZAivcPpsBMs2qQaSWTjL4BgcyIbTu4mX253CMPV6mogyfjnwJjsQLY4cqcYmWBv0EQW7n6cB_aJ_9N6WiLQ9W4Rd9ZtEQDs9RyH2xX9YBVr52FiPsXJ3q2m1srrWazyP_XO7_KB2FfWZYK3-4DG1MpYJaPnsqqDbUHI_yfST61DMTNcFWFE1vH35E9HMy6BTZFlvUxqMqng1AU755IidsvE1cEgMVrVBOPjIGMYlhxQqUp511KscyRU8GnIP4R-qoM9oA74Wvf3Hx7Gq7MPhmC7j2OogqiRvThbV13-mNx3km7icMg3QWNh9d0AZjvLRtCBJQkbdgfNMfWXPd8xb6IcfGpdI-We1e8I-AGvgy0DDJZFNsRpt1we3qemgCk9eQxgKHJz4H-OBi3nI2XA3kc7e0noymS-8yo3TM8w7UTvDAzsDmTiqDJ26WdKln_b94Yeg1Gg8R1wabjg0n4WJWnbAEhEZpRD8LdxZeyKPKCfNbLm5WnvNx-ElUftZQK_bL1qkgfK0lNXKgj44Ffl_V6-Q2lNRFwfMSNBrmlCLr_uZth2QwlS7rD_rVxU1zx1U41ZkTYPyBG_mC0?></g></svg>